<svg width="23" height="26" viewBox="0 0 23 26" fill="none" xmlns="http://www.w3.org/2000/svg">
<path id="Vector" d="M20.125 13.8586V11.5812H18.375V14.2232C18.375 14.4567 18.4673 14.6807 18.6314 14.8458L21 17.2297V18.6265H1.75V17.2297L4.11862 14.8458C4.28273 14.6807 4.37495 14.4567 4.375 14.2232V10.7006C4.37256 9.46306 4.69464 8.24682 5.3087 7.1747C5.92276 6.10257 6.80706 5.21252 7.87228 4.59445C8.9375 3.97638 10.1459 3.65218 11.3755 3.65459C12.605 3.657 13.8122 3.98594 14.875 4.60818V2.63992C14.0421 2.26874 13.1562 2.03216 12.25 1.93892V0.13269H10.5V1.93804C8.34275 2.15902 6.34354 3.17722 4.88895 4.79575C3.43436 6.41428 2.62771 8.51816 2.625 10.7006V13.8586L0.256375 16.2425C0.0922693 16.4076 4.95577e-05 16.6316 0 16.8652V19.5071C0 19.7407 0.0921872 19.9647 0.256282 20.1298C0.420376 20.295 0.642936 20.3878 0.875 20.3878H7V21.2684C7 22.4363 7.46094 23.5563 8.28141 24.382C9.10188 25.2078 10.2147 25.6717 11.375 25.6717C12.5353 25.6717 13.6481 25.2078 14.4686 24.382C15.2891 23.5563 15.75 22.4363 15.75 21.2684V20.3878H21.875C22.1071 20.3878 22.3296 20.295 22.4937 20.1298C22.6578 19.9647 22.75 19.7407 22.75 19.5071V16.8652C22.75 16.6316 22.6577 16.4076 22.4936 16.2425L20.125 13.8586ZM14 21.2684C14 21.9691 13.7234 22.6411 13.2312 23.1366C12.7389 23.6321 12.0712 23.9104 11.375 23.9104C10.6788 23.9104 10.0111 23.6321 9.51884 23.1366C9.02656 22.6411 8.75 21.9691 8.75 21.2684V20.3878H14V21.2684Z" fill="black"/>
</svg>
