<svg width="24" height="21" viewBox="0 0 24 21" fill="none" xmlns="http://www.w3.org/2000/svg">
<g id="Group 8">
<path id="Vector" d="M22.1667 9.33333H19.8333V2.33333H21V0H2.33333V2.33333H3.5V9.33333H1.16667C0.857247 9.33333 0.560501 9.45625 0.341709 9.67504C0.122916 9.89383 0 10.1906 0 10.5V21H23.3333V10.5C23.3333 10.1906 23.2104 9.89383 22.9916 9.67504C22.7728 9.45625 22.4761 9.33333 22.1667 9.33333ZM14 18.6667V14H9.33333V18.6667H5.83333V2.33333H17.5V18.6667H14Z" fill="black"/>
<path id="Vector_2" d="M8.16699 4.6662H10.5003V6.99953H8.16699V4.6662ZM12.8337 4.6662H15.167V6.99953H12.8337V4.6662ZM8.16699 9.33287H10.5003V11.6662H8.16699V9.33287ZM12.8337 9.33287H15.167V11.6662H12.8337V9.33287Z" fill="black"/>
</g>
</svg>
