            <svg
              xmlns="http://www.w3.org/2000/svg"
              width="26"
              height="26"
              viewBox="0 0 26 26"
              fill="none"
            >
              {" "}
              <path
                d="M12.8691 6.13849L12.3099 6.67696C12.3823 6.75212 12.4692 6.81191 12.5653 6.85275C12.6613 6.89358 12.7647 6.91463 12.8691 6.91463C12.9734 6.91463 13.0768 6.89358 13.1728 6.85275C13.2689 6.81191 13.3558 6.75212 13.4282 6.67696L12.8691 6.13849ZM7.69253 17.4463C7.53324 17.3153 7.32844 17.2529 7.12317 17.2729C6.91791 17.2929 6.729 17.3936 6.598 17.5529C6.46699 17.7122 6.40464 17.917 6.42464 18.1223C6.44464 18.3276 6.54536 18.5165 6.70465 18.6475L7.69253 17.4463ZM2.86808 14.3304C2.91704 14.4199 2.98314 14.4989 3.06261 14.5628C3.14208 14.6267 3.23336 14.6744 3.33125 14.703C3.42914 14.7317 3.53171 14.7408 3.63311 14.7298C3.73451 14.7188 3.83276 14.688 3.92223 14.639C4.01171 14.5901 4.09067 14.524 4.1546 14.4445C4.21854 14.365 4.26619 14.2737 4.29485 14.1758C4.3235 14.078 4.33259 13.9754 4.32161 13.874C4.31062 13.7726 4.27977 13.6743 4.23082 13.5849L2.86808 14.3304ZM3.29057 9.90465C3.29057 7.6783 4.54872 5.81024 6.26663 5.02428C7.93588 4.26111 10.1788 4.46304 12.3099 6.67696L13.4282 5.60106C10.9016 2.97397 7.96487 2.54009 5.62047 3.61185C3.32785 4.66082 1.7373 7.09634 1.7373 9.90465H3.29057ZM9.24166 20.6357C9.77287 21.054 10.3424 21.4993 10.9192 21.8368C11.496 22.1734 12.1545 22.4478 12.8691 22.4478V20.8945C12.548 20.8945 12.1711 20.7703 11.7031 20.4959C11.234 20.2225 10.7483 19.8456 10.2036 19.4158L9.24166 20.6357ZM16.4964 20.6357C17.9731 19.4707 19.8619 18.137 21.3426 16.4688C22.8514 14.7705 24.0008 12.6653 24.0008 9.90465H22.4475C22.4475 12.1797 21.5156 13.9338 20.1818 15.4374C18.8201 16.9699 17.1043 18.1784 15.5345 19.4158L16.4964 20.6357ZM24.0008 9.90465C24.0008 7.09634 22.4113 4.66082 20.1176 3.61185C17.7732 2.54009 14.8386 2.97397 12.3099 5.60003L13.4282 6.67696C15.5593 4.46407 17.8022 4.26111 19.4715 5.02428C21.1894 5.81024 22.4475 7.67726 22.4475 9.90465H24.0008ZM15.5345 19.4158C14.9898 19.8456 14.5041 20.2225 14.035 20.4959C13.567 20.7692 13.1901 20.8945 12.8691 20.8945V22.4478C13.5836 22.4478 14.2421 22.1734 14.8189 21.8368C15.3967 21.4993 15.9652 21.054 16.4964 20.6357L15.5345 19.4158ZM10.2036 19.4158C9.37938 18.7666 8.54165 18.1452 7.69253 17.4463L6.70465 18.6475C7.56413 19.3547 8.47331 20.0299 9.24166 20.6357L10.2047 19.4158H10.2036ZM4.23082 13.5859C3.60703 12.4597 3.28325 11.192 3.29057 9.90465H1.7373C1.7373 11.6008 2.17222 13.0588 2.86808 14.3304L4.23082 13.5849V13.5859Z"
                fill="black"
              />
              </svg>