<svg
              xmlns="http://www.w3.org/2000/svg"
              width="24"
              height="24"
              viewBox="0 0 24 24"
              fill="none"
            >
              <path
                d="M17.5001 2.5C17.0408 2.49982 16.5876 2.60508 16.1755 2.80768C15.7633 3.01028 15.4032 3.3048 15.1228 3.66855C14.8424 4.0323 14.6493 4.45556 14.5583 4.90572C14.4674 5.35588 14.481 5.82092 14.5981 6.265C14.5256 6.28031 14.4559 6.30626 14.3911 6.342L11.6341 7.845L8.12807 9.85C8.09297 9.86996 8.05953 9.8927 8.02807 9.918C7.54032 9.62955 6.98084 9.48514 6.41442 9.50149C5.84799 9.51784 5.29778 9.69428 4.82747 10.0104C4.35717 10.3265 3.98601 10.7693 3.75697 11.2876C3.52792 11.806 3.45036 12.3785 3.53325 12.9391C3.61614 13.4997 3.85611 14.0253 4.22536 14.4551C4.59461 14.885 5.07805 15.2014 5.61972 15.3679C6.16138 15.5343 6.73911 15.544 7.28602 15.3957C7.83294 15.2474 8.32668 14.9473 8.71007 14.53L11.6361 16.157L14.5901 17.768C14.4112 18.476 14.4968 19.2248 14.8306 19.8743C15.1644 20.5237 15.7236 21.0291 16.4034 21.2956C17.0832 21.5622 17.8369 21.5717 18.5232 21.3224C19.2095 21.073 19.7813 20.5819 20.1314 19.9411C20.4815 19.3003 20.5859 18.5538 20.4249 17.8416C20.264 17.1293 19.8489 16.5002 19.2573 16.0722C18.6657 15.6442 17.9383 15.4466 17.2114 15.5165C16.4846 15.5864 15.8082 15.919 15.3091 16.452L12.3621 14.844L9.41607 13.208C9.59532 12.4654 9.4852 11.6824 9.10807 11.018L12.3661 9.156L15.1091 7.659C15.1743 7.62367 15.234 7.57885 15.2861 7.526C15.623 7.89393 16.0463 8.17203 16.5178 8.33513C16.9892 8.49823 17.4939 8.54119 17.9862 8.46012C18.4784 8.37904 18.9427 8.17649 19.3369 7.8708C19.7311 7.56511 20.0429 7.16593 20.244 6.70939C20.4451 6.25285 20.5292 5.75336 20.4887 5.25614C20.4481 4.75892 20.2842 4.27966 20.0118 3.86174C19.7394 3.44382 19.367 3.10043 18.9284 2.86266C18.4899 2.62489 17.9989 2.50024 17.5001 2.5Z"
                fill="black"
              />
            </svg>