<svg xmlns="http://www.w3.org/2000/svg" width="23" height="23" viewBox="0 0 23 23" fill="none">
  <path d="M17.6094 1.4375C16.992 1.4375 16.3559 1.64378 15.8729 2.12678C15.387 2.61194 15.0938 3.34003 15.0938 4.3125V4.33766C14.4949 4.42409 13.9473 4.72345 13.5513 5.18086C13.1553 5.63827 12.9373 6.22309 12.9375 6.82812V8.98438C12.9375 9.07969 12.9754 9.1711 13.0428 9.23849C13.1102 9.30589 13.2016 9.34375 13.2969 9.34375H17.6094C17.7047 9.34375 17.7961 9.30589 17.8635 9.23849C17.9309 9.1711 17.9688 9.07969 17.9688 8.98438V6.82812C17.9689 6.22309 17.751 5.63827 17.355 5.18086C16.9589 4.72345 16.4113 4.42409 15.8125 4.33766V4.3125C15.8125 3.48809 16.0583 2.95766 16.381 2.63494C16.7066 2.30934 17.1494 2.15625 17.6094 2.15625C18.0694 2.15625 18.5121 2.30934 18.8377 2.63494C19.1612 2.95837 19.4062 3.48809 19.4062 4.3125V19.803C18.7781 19.9381 18.3324 20.4262 18.1484 21.0587C18.1484 21.0587 17.9688 21.5625 18.3281 21.5625H21.2031C21.5625 21.5625 21.3828 21.0594 21.3828 21.0594C21.1988 20.4269 20.7532 19.9381 20.125 19.803V4.3125C20.125 3.34003 19.8318 2.61266 19.3459 2.12678C18.8629 1.64378 18.2275 1.4375 17.6094 1.4375Z" fill="#018191"/>
  <path d="M2.15625 12.9375C2.15625 12.5563 2.3077 12.1906 2.57728 11.921C2.84687 11.6515 3.2125 11.5 3.59375 11.5H8.98438C9.246 11.5 9.49181 11.5697 9.70312 11.6926C9.92152 11.5661 10.1695 11.4997 10.4219 11.5H15.8125C16.1937 11.5 16.5594 11.6515 16.829 11.921C17.0985 12.1906 17.25 12.5563 17.25 12.9375V14.4958C17.6748 14.6977 17.9688 15.1311 17.9688 15.6328V20.125C17.9688 20.3156 17.893 20.4984 17.7582 20.6332C17.6234 20.768 17.4406 20.8438 17.25 20.8438V21.3828C17.25 21.4305 17.2311 21.4762 17.1974 21.5099C17.1637 21.5436 17.118 21.5625 17.0703 21.5625H15.9922C15.9445 21.5625 15.8988 21.5436 15.8651 21.5099C15.8314 21.4762 15.8125 21.4305 15.8125 21.3828V20.8438H3.59375V21.3828C3.59375 21.4305 3.57482 21.4762 3.54112 21.5099C3.50742 21.5436 3.46172 21.5625 3.41406 21.5625H2.33594C2.28828 21.5625 2.24258 21.5436 2.20888 21.5099C2.17518 21.4762 2.15625 21.4305 2.15625 21.3828V20.8438C1.96563 20.8438 1.78281 20.768 1.64802 20.6332C1.51323 20.4984 1.4375 20.3156 1.4375 20.125V15.6328C1.4375 15.1311 1.73147 14.6984 2.15625 14.4958V12.9375ZM15.8125 12.9375H10.0625V16.5313H15.4531V15.6328C15.4531 15.29 15.5897 14.9788 15.8125 14.7523V12.9375ZM3.95312 17.9688V19.4063H15.4531V17.9688H3.95312ZM3.95312 16.5313H9.34375V12.9375H3.59375V14.7523C3.81656 14.9795 3.95312 15.29 3.95312 15.6328V16.5313Z" fill="#018191"/>
</svg>