<svg xmlns="http://www.w3.org/2000/svg" width="21" height="21" viewBox="0 0 21 21" fill="none">
<g clip-path="url(#clip0_1173_516)">
<path d="M18.0833 4.66669H13.4167V5.83335H18.0833V18.0834H13.4167V19.25H19.25V5.83335C19.25 5.52393 19.1271 5.22719 18.9083 5.0084C18.6895 4.7896 18.3928 4.66669 18.0833 4.66669Z" fill="#018191"/>
<path d="M11.5967 1.75H3.56999C3.24201 1.75 2.92746 1.88029 2.69554 2.11221C2.46362 2.34413 2.33333 2.65868 2.33333 2.98667V19.25H12.8333V2.98667C12.8333 2.65868 12.703 2.34413 12.4711 2.11221C12.2392 1.88029 11.9246 1.75 11.5967 1.75ZM11.6667 18.0833H9.91666V16.3333H5.24999V18.0833H3.49999V2.98667C3.49999 2.97747 3.50181 2.96837 3.50532 2.95988C3.50884 2.95139 3.514 2.94367 3.5205 2.93717C3.527 2.93067 3.53471 2.92551 3.54321 2.92199C3.5517 2.91848 3.5608 2.91667 3.56999 2.91667H11.5967C11.6059 2.91667 11.615 2.91848 11.6234 2.92199C11.6319 2.92551 11.6397 2.93067 11.6462 2.93717C11.6527 2.94367 11.6578 2.95139 11.6613 2.95988C11.6649 2.96837 11.6667 2.97747 11.6667 2.98667V18.0833Z" fill="#018191"/>
<path d="M4.66667 4.66669H5.83334V5.83335H4.66667V4.66669Z" fill="#018191"/>
<path d="M7 4.66669H8.16667V5.83335H7V4.66669Z" fill="#018191"/>
<path d="M9.33333 4.66669H10.5V5.83335H9.33333V4.66669Z" fill="#018191"/>
<path d="M4.66667 7.58331H5.83334V8.74998H4.66667V7.58331Z" fill="#018191"/>
<path d="M7 7.58331H8.16667V8.74998H7V7.58331Z" fill="#018191"/>
<path d="M9.33333 7.58331H10.5V8.74998H9.33333V7.58331Z" fill="#018191"/>
<path d="M4.66667 10.5H5.83334V11.6667H4.66667V10.5Z" fill="#018191"/>
<path d="M7 10.5H8.16667V11.6667H7V10.5Z" fill="#018191"/>
<path d="M9.33333 10.5H10.5V11.6667H9.33333V10.5Z" fill="#018191"/>
<path d="M4.66667 13.4167H5.83334V14.5834H4.66667V13.4167Z" fill="#018191"/>
<path d="M7 13.4167H8.16667V14.5834H7V13.4167Z" fill="#018191"/>
<path d="M9.33333 13.4167H10.5V14.5834H9.33333V13.4167Z" fill="#018191"/>
<path d="M13.4167 7.58331H14.5833V8.74998H13.4167V7.58331Z" fill="#018191"/>
<path d="M15.75 7.58331H16.9167V8.74998H15.75V7.58331Z" fill="#018191"/>
<path d="M13.4167 10.5H14.5833V11.6667H13.4167V10.5Z" fill="#018191"/>
<path d="M15.75 10.5H16.9167V11.6667H15.75V10.5Z" fill="#018191"/>
<path d="M13.4167 13.4167H14.5833V14.5834H13.4167V13.4167Z" fill="#018191"/>
<path d="M15.75 13.4167H16.9167V14.5834H15.75V13.4167Z" fill="#018191"/>
</g>
<defs>
<clipPath id="clip0_1173_516">
<rect width="21" height="21" fill="white"/>
</clipPath>
</defs>
</svg>