<svg width="24" height="23" viewBox="0 0 24 23" fill="none" xmlns="http://www.w3.org/2000/svg">
<path id="Vector" d="M9.85991 0.594118C10.3648 0.20955 10.9923 0 11.6392 0C12.2861 0 12.9136 0.20955 13.4185 0.594118L21.961 7.09249C22.6362 7.60618 23.03 8.38443 23.03 9.20756V20.0676C23.03 20.7857 22.73 21.4744 22.196 21.9822C21.662 22.49 20.9377 22.7752 20.1825 22.7752H14.4875C14.1638 22.7752 13.8534 22.653 13.6246 22.4354C13.3957 22.2177 13.2671 21.9226 13.2671 21.6148V13.4918H10.0129V21.6148C10.0129 21.9226 9.88428 22.2177 9.65542 22.4354C9.42656 22.653 9.11616 22.7752 8.7925 22.7752H3.0975C2.3423 22.7752 1.61802 22.49 1.08401 21.9822C0.550004 21.4744 0.25 20.7857 0.25 20.0676V9.20601C0.25 8.38443 0.643769 7.60618 1.31903 7.09249L9.85991 0.594118ZM11.8938 2.40593C11.8218 2.35119 11.7322 2.32138 11.64 2.32138C11.5478 2.32138 11.4582 2.35119 11.3862 2.40593L2.84367 8.9043C2.79581 8.94064 2.7572 8.98679 2.73071 9.0393C2.70423 9.09181 2.69056 9.14933 2.69071 9.20756V20.0676C2.69071 20.2811 2.87295 20.4544 3.0975 20.4544H7.57214V12.3314C7.57214 12.0237 7.70072 11.7285 7.92958 11.5109C8.15844 11.2933 8.46884 11.171 8.7925 11.171H14.4875C14.8112 11.171 15.1216 11.2933 15.3504 11.5109C15.5793 11.7285 15.7079 12.0237 15.7079 12.3314V20.4544H20.1825C20.2904 20.4544 20.3939 20.4136 20.4701 20.3411C20.5464 20.2686 20.5893 20.1702 20.5893 20.0676V9.20601C20.5892 9.14804 20.5754 9.09082 20.5489 9.0386C20.5225 8.98638 20.484 8.94048 20.4363 8.9043L11.8938 2.40593Z" fill="#018191"/>
</svg>
