<svg width="22" height="22" viewBox="0 0 22 22" fill="none" xmlns="http://www.w3.org/2000/svg">
<g id="Group">
<path id="Vector" d="M6.18608 4.81158C5.86465 4.81158 5.55638 4.93927 5.3291 5.16656C5.10181 5.39385 4.97412 5.70211 4.97412 6.02354C4.97412 6.34497 5.10181 6.65324 5.3291 6.88053C5.55638 7.10781 5.86465 7.2355 6.18608 7.2355H15.7923C16.1138 7.2355 16.422 7.10781 16.6493 6.88053C16.8766 6.65324 17.0043 6.34497 17.0043 6.02354C17.0043 5.70211 16.8766 5.39385 16.6493 5.16656C16.422 4.93927 16.1138 4.81158 15.7923 4.81158H6.18608ZM4.97775 10.875C4.97775 10.208 5.51787 9.66304 6.18608 9.66304H15.7923C16.1138 9.66304 16.422 9.79073 16.6493 10.018C16.8766 10.2453 17.0043 10.5536 17.0043 10.875C17.0043 11.1964 16.8766 11.5047 16.6493 11.732C16.422 11.9593 16.1138 12.087 15.7923 12.087H6.18608C5.51787 12.087 4.97775 11.5432 4.97775 10.875ZM6.19695 14.5145C5.87536 14.5145 5.56694 14.6423 5.33954 14.8697C5.11214 15.0971 4.98439 15.4055 4.98439 15.7271C4.98439 16.0487 5.11214 16.3571 5.33954 16.5845C5.56694 16.8119 5.87536 16.9396 6.19695 16.9396H15.8032C16.1248 16.9396 16.4332 16.8119 16.6606 16.5845C16.888 16.3571 17.0158 16.0487 17.0158 15.7271C17.0158 15.4055 16.888 15.0971 16.6606 14.8697C16.4332 14.6423 16.1248 14.5145 15.8032 14.5145H6.19695Z" fill="black" fill-opacity="0.76"/>
<path id="Vector_2" fill-rule="evenodd" clip-rule="evenodd" d="M0.125 3.625C0.125 2.66359 0.506919 1.74156 1.18674 1.06174C1.86656 0.381919 2.78859 0 3.75 0H18.25C19.2114 0 20.1334 0.381919 20.8133 1.06174C21.4931 1.74156 21.875 2.66359 21.875 3.625V18.125C21.875 19.0864 21.4931 20.0084 20.8133 20.6883C20.1334 21.3681 19.2114 21.75 18.25 21.75H3.75C2.78859 21.75 1.86656 21.3681 1.18674 20.6883C0.506919 20.0084 0.125 19.0864 0.125 18.125V3.625ZM3.75 2.41667H18.25C18.5705 2.41667 18.8778 2.54397 19.1044 2.77058C19.331 2.99719 19.4583 3.30453 19.4583 3.625V18.125C19.4583 18.4455 19.331 18.7528 19.1044 18.9794C18.8778 19.206 18.5705 19.3333 18.25 19.3333H3.75C3.42953 19.3333 3.12219 19.206 2.89558 18.9794C2.66897 18.7528 2.54167 18.4455 2.54167 18.125V3.625C2.54167 3.30453 2.66897 2.99719 2.89558 2.77058C3.12219 2.54397 3.42953 2.41667 3.75 2.41667Z" fill="black" fill-opacity="0.76"/>
</g>
</svg>
